<?xml version="1.0" encoding="UTF-8" standalone="no"?>
<!-- Generator: Adobe Illustrator 19.1.0, SVG Export Plug-In . SVG Version: 6.00 Build 0)  -->
<svg id="Layer_2" xmlns="http://www.w3.org/2000/svg" xml:space="preserve" viewBox="-227 370 157 54" version="1.1" y="0px" x="0px" xmlns:xlink="http://www.w3.org/1999/xlink" fill="currentColor">
	<path d="m-143.4 405.9c1.1 0 1.4 0.7 1.4 1.8v12.3c0 1.2-0.3 1.8-1.4 1.8v1.4h6.7v-1.4c-1.2-0.1-1.5-0.5-1.5-2v-12.3c0-1.2 0.4-1.8 1.5-1.8v-1.4h-6.7v1.6z"/>
	<path d="m-126.9 414.1c-1-1.2-2-2-2.3-2.4l-2-2c-0.7-0.6-1-1.2-1.1-1.7-0.2-0.5-0.2-1.5 0.3-2s1.1-0.7 1.8-0.6 1.5 0.7 1.9 1.2c0.4 0.6 0.8 1.3 1 1.8 0.1 0.5 0.2 0.8 0.2 0.9s0.1 0.5 0.1 0.6h1.6v-5.6h-1.2s-0.1 0.3-0.3 0.4-0.3 0-0.4 0c-0.1-0.1-1.1-0.5-2.3-0.7s-2.7-0.1-3.7 0.4c-0.6 0.3-1 0.6-1.5 1-0.4 0.4-0.8 1-1 1.5-0.4 1-0.5 2.2-0.1 3.3s1.2 2.1 1.8 2.8l1.4 1.4c0.6 0.6 1.3 1.3 1.5 1.6 0.5 0.5 1 1 1.7 1.8 0.7 0.9 0.9 1.6 0.8 2.4s-0.5 1.2-0.9 1.5c-0.5 0.3-1.2 0.4-1.9 0.1s-1.2-0.8-1.4-1.2c-0.3-0.4-0.6-1.2-0.8-1.8s-0.4-1.4-0.4-1.4h-1.4v5.7h1c0.1-0.1 0.3-0.4 0.5-0.5 0.3-0.2 0.6-0.1 0.9 0s0.6 0.3 1.1 0.4c0.7 0.2 1.4 0.3 2.3 0.3 1-0.1 1.3-0.2 1.9-0.5 0.7-0.3 1.5-0.9 2.1-2 0.6-1.2 0.7-2.6 0.5-3.7s-0.8-1.9-1.7-3z"/>
	<path d="m-160.3 421.9c-1.4 0-2.2-1-2.2-2.6v-5.2c2 0 3.8 0.7 4 2.5h1.3v-6.1h-1.3c-0.3 1.6-2 2.2-4 2.2v-6.8h1c1.8 0 3.5 0.4 4.6 2.6h1.2v-4h-12.5v1.4c1.1 0 1.6 0.6 1.6 1.8v12.1c0 1.3-0.3 1.9-1.5 2v1.4h12.2l0.5-4.8h-1.2c-0.8 2.3-2.3 3.5-3.7 3.5z"/>
	<path d="m-174.5 405.9c1.4 0.2 1.7 1 1.7 3v7.1h-0.1l-7.1-11.5h-5.4v1.4c0.7 0.2 2 0.7 2.5 1.8v10c0 2.9-0.3 3.6-1.7 4.2v1.4h5.1v-1.4c-1.5-0.3-1.8-1.3-1.8-3v-9.9l0.1 0.1 8.7 14.3h1.3v-14.9c0-1.1 0.2-1.9 0.6-2.3s1.5-0.4 1.5-0.4v-1.4h-5.3v1.5z"/>
	<path d="m-200.5 404.5h-14.7v4.1h1.2c0.5-2.5 2.8-2.7 4.1-2.7v14.2c0 1.2-0.2 1.8-1.5 1.8v1.4h7.2v-1.4c-1.5-0.1-1.5-0.8-1.5-2v-14c1.4 0 3.4 0.4 3.9 2.7h1.3v-4.1z"/>
	<path d="m-217.7 414.1c-1-1.2-2-2.1-2.3-2.4l-2-2c-0.7-0.6-1-1.2-1.1-1.7-0.2-0.5-0.2-1.5 0.3-2s1.1-0.7 1.8-0.6 1.5 0.7 1.9 1.2 0.8 1.3 1 1.8c0.1 0.5 0.2 0.8 0.2 0.9s0.1 0.5 0.1 0.6h1.6v-5.6h-1.2s-0.1 0.3-0.3 0.4-0.3 0-0.4 0c-0.1-0.1-1.1-0.5-2.3-0.7s-2.7-0.1-3.7 0.4c-0.6 0.3-1 0.6-1.5 1-0.4 0.4-0.8 1-1 1.5-0.4 1-0.5 2.2-0.1 3.3s1.1 2.1 1.8 2.8l1.4 1.4c0.6 0.6 1.3 1.3 1.5 1.6 0.5 0.5 1 1 1.7 1.8 0.7 0.9 0.9 1.6 0.8 2.4s-0.5 1.2-0.9 1.5c-0.5 0.3-1.2 0.4-1.9 0.1s-1.2-0.8-1.4-1.2c-0.3-0.4-0.6-1.2-0.8-1.8s-0.4-1.4-0.4-1.4h-1.4v5.7h1c0.1-0.1 0.3-0.4 0.5-0.5 0.3-0.2 0.6-0.1 0.9 0s0.6 0.3 1.1 0.4c0.7 0.2 1.4 0.3 2.3 0.3 1-0.1 1.3-0.2 1.9-0.5 0.7-0.3 1.5-0.9 2.1-2 0.6-1.2 0.7-2.6 0.5-3.7s-0.8-1.9-1.7-3z"/>
	<path d="m-192.8 404.2c-2.1 0-7.7 1.3-7.7 9.6 0 8.2 5.3 9.8 7.7 9.8s7.7-1.6 7.7-9.8c0-8.3-5.7-9.6-7.7-9.6zm2.3 15.9c-0.5 1.1-1 2.1-2.3 2.1s-2.2-1.4-2.5-2.4c-0.2-1-0.6-3.2-0.5-6.1 0-2.8 0.3-4.9 0.5-5.7s0.9-2.5 2.5-2.5c1.1 0 2 0.9 2.4 2.2s0.6 4.2 0.6 6-0.2 5.3-0.7 6.4z"/>
	<path d="m-145.1 388.9l-3.9-18.9-3.8 18.9-18.9 3.8 18.9 3.8 3.8 18.9 3.8-18.9 18.9-3.8-18.8-3.8zm-24.2 3.8l16.7-3.4 3.3 3.4h-20zm20.3 20.3l-3.4-16.7 3.4-3.3v20zm0-40.6l3.4 16.7-3.4 3.3v-20zm3.7 23.7l-3.3-3.4h20l-16.7 3.4z"/>
	<path d="m-89.1 405.9c1.4 0.2 1.7 1.1 1.7 3.1v7.1h-0.1l-7-11.5h-4.8v1.4c0.7 0.2 1.8 1.6 1.8 1.6v10.9c-0.1 1.3-0.1 2.6-0.7 3.2-0.2 0.2-0.4 0.2-0.7 0.2-0.7 0-1.1-0.6-1.8-3.3l-3.6-14h-3.9l0.4 1.5-3.4 11.8c-0.8 2.9-1.2 3.8-2.1 4.3v1.1h4.6v-1.1c-0.9-0.3-1.3-1.1-1.3-1.9 0-0.4 0.2-1.1 0.3-1.6l0.5-1.7h4.1l0.5 2.1c0.2 0.9 0.3 1.3 0.3 1.6 0 0.7-0.4 1.4-1.1 1.6v1.1h11.3v-1.2c-1.5-0.3-1.9-1.5-1.9-3.2v-10l0.1 0.1 8.7 14.3h1.3v-14.9c0-1.6 0.1-2.4 1.2-2.6v-1.4h-4.5v1.4zm-19.5 9.3l1.6-6.5h0.1l1.5 6.5h-3.2z"/>
	<path d="m-78.5 404.5h-5.4v1.4c0.7 0.2 0.9 0.9 0.9 1.7v12.2c0 1.3 0 1.9-0.9 2v1.4h5.9c5.9 0 7.2-4.9 7.2-9.4 0-6.7-2.6-9.3-7.7-9.3zm0.8 17.4c-0.9 0-1.4-0.4-1.4-2.1v-13.9h0.5c1.9 0 3.5 1.5 3.5 7.8 0 4.8-0.5 8.2-2.6 8.2z"/>
	<path d="m-118.3 421.9c-1 0-0.9-1-0.9-2.9v-11.2c0-1.2 0.3-1.8 1.5-1.9v-1.4h-6.5v1.4c1 0.1 1.3 0.6 1.3 1.9v12.2c0 1.2-0.2 1.8-1.3 1.9v1.4h10.2l0.6-4.7h-1.1c-0.9 2.1-2.4 3.3-3.8 3.3z"/>
</svg>
