<?xml version="1.0" encoding="UTF-8" standalone="no"?>
<svg
   xmlns:dc="http://purl.org/dc/elements/1.1/"
   xmlns:cc="http://creativecommons.org/ns#"
   xmlns:rdf="http://www.w3.org/1999/02/22-rdf-syntax-ns#"
   xmlns:svg="http://www.w3.org/2000/svg"
   xmlns="http://www.w3.org/2000/svg"
   xmlns:sodipodi="http://sodipodi.sourceforge.net/DTD/sodipodi-0.dtd"
   xmlns:inkscape="http://www.inkscape.org/namespaces/inkscape"
   version="1.1"
   height="13"
   width="13"
   id="svg4"
   sodipodi:docname="search-lens.svg"
   inkscape:version="0.92.3 (2405546, 2018-03-11)"
   fill="currentColor">
  <metadata
     id="metadata10">
    <rdf:RDF>
      <cc:Work
         rdf:about="">
        <dc:format>image/svg+xml</dc:format>
        <dc:type
           rdf:resource="http://purl.org/dc/dcmitype/StillImage" />
        <dc:title></dc:title>
      </cc:Work>
    </rdf:RDF>
  </metadata>
  <defs
     id="defs8" />
  <sodipodi:namedview
     pagecolor="#ffffff"
     bordercolor="#666666"
     borderopacity="1"
     objecttolerance="10"
     gridtolerance="10"
     guidetolerance="10"
     inkscape:pageopacity="0"
     inkscape:pageshadow="2"
     inkscape:window-width="2880"
     inkscape:window-height="1706"
     id="namedview6"
     showgrid="false"
     inkscape:zoom="13.882353"
     inkscape:cx="-24.563559"
     inkscape:cy="-17.432203"
     inkscape:window-x="6"
     inkscape:window-y="-11"
     inkscape:window-maximized="1"
     inkscape:current-layer="svg4" />
  <path
     d="m 12.385272,11.528238 c 0,0 -3.1130008,-3.1580007 -3.1130008,-3.1580007 0.643,-0.827 1.0410008,-1.854 1.0410008,-2.982 0,-2.693 -2.1840008,-4.884 -4.8690008,-4.884 -2.684,0 -4.868,2.191 -4.868,4.884 0,2.693 2.184,4.8830007 4.868,4.8830007 1.136,0 2.168,-0.4070008 2.997,-1.0630007 0,0 3.1050008,3.1510007 3.1050008,3.1510007 0.116,0.118 0.268,0.175 0.419,0.175 0.15,0 0.3,-0.056 0.415,-0.17 0.231,-0.23 0.233,-0.604 0.005,-0.836 z M 1.7542712,5.3882373 c 0,-2.042 1.656,-3.703 3.69,-3.703 2.036,0 3.692,1.661 3.692,3.703 0,2.041 -1.656,3.702 -3.692,3.702 -2.034,0 -3.69,-1.661 -3.69,-3.702 z"
     id="path2"
     inkscape:connector-curvature="0" />
</svg>
