<?xml version="1.0" encoding="UTF-8" standalone="no"?>
<svg
   xmlns:dc="http://purl.org/dc/elements/1.1/"
   xmlns:cc="http://creativecommons.org/ns#"
   xmlns:rdf="http://www.w3.org/1999/02/22-rdf-syntax-ns#"
   xmlns:svg="http://www.w3.org/2000/svg"
   xmlns="http://www.w3.org/2000/svg"
   xmlns:sodipodi="http://sodipodi.sourceforge.net/DTD/sodipodi-0.dtd"
   xmlns:inkscape="http://www.inkscape.org/namespaces/inkscape"
   version="1.1"
   height="13"
   width="13"
   id="svg4"
   sodipodi:docname="unlogged.svg"
   inkscape:version="0.92.3 (2405546, 2018-03-11)">
  <metadata
     id="metadata10">
    <rdf:RDF>
      <cc:Work
         rdf:about="">
        <dc:format>image/svg+xml</dc:format>
        <dc:type
           rdf:resource="http://purl.org/dc/dcmitype/StillImage" />
        <dc:title />
      </cc:Work>
    </rdf:RDF>
  </metadata>
  <defs
     id="defs8" />
  <sodipodi:namedview
     pagecolor="#ffffff"
     bordercolor="#666666"
     borderopacity="1"
     objecttolerance="10"
     gridtolerance="10"
     guidetolerance="10"
     inkscape:pageopacity="0"
     inkscape:pageshadow="2"
     inkscape:window-width="2880"
     inkscape:window-height="1706"
     id="namedview6"
     showgrid="false"
     inkscape:zoom="64"
     inkscape:cx="9.7209476"
     inkscape:cy="4.8862594"
     inkscape:window-x="6"
     inkscape:window-y="-11"
     inkscape:window-maximized="1"
     inkscape:current-layer="svg4" />
  <path
     d="m 6.51,0.95826818 c 1.474,0 2.671,1.24499982 2.671,3.13599982 0,1.443 -0.645,2.115 -1.612,3.11 0,0 0.184,0.796 0.599,0.945 0,0 2.971,1.195015 2.971,1.195015 0.461,0.199009 0.921,1.889029 0.829,2.387029 0,0 0,0.283 0,0.283 0,0 -5.464,0 -5.464,0 0,0 -5.464,0 -5.464,0 0,0 0,-0.283 0,-0.283 -0.092,-0.498 0.368,-2.18802 0.829,-2.387029 0,0 2.971,-1.195015 2.971,-1.195015 0.415,-0.149 0.599,-0.945 0.599,-0.945 -0.967,-0.995 -1.612,-1.667 -1.612,-3.11 0,-1.891 1.198,-3.13599982 2.671,-3.13599982 0.002,0 0.004,0 0.006,0 0.002,0 0.004,0 0.006,0 m 0,-0.98599666 c 0,0 -0.008,0 -0.008,0 0,0 -0.011,0.001 -0.011,0.001 -2.083,-0.001 -3.66,1.77099648 -3.66,4.12099648 0,1.522 0.595,2.402 1.371,3.248 0,0 -2.707,1.088 -2.707,1.088 -1.062,0.458 -1.495,2.540044 -1.451,3.332044 0,0 0,0.252 0,0.252 0,0 0,0.986 0,0.986 0,0 0.996,0 0.996,0 0,0 5.464,0 5.464,0 0,0 5.464,0 5.464,0 0,0 0.996,0 0.996,0 0,0 0,-0.986 0,-0.986 0,0 0,-0.252 0,-0.252 0.045,-0.792 -0.388,-2.873044 -1.427,-3.322044 0,0 -2.73,-1.098 -2.73,-1.098 0.776,-0.846 1.37,-1.726 1.37,-3.248 0,-2.35 -1.577,-4.12199648 -3.667,-4.12199648 0,0 0,0 0,0 z"
     id="path2"
     inkscape:connector-curvature="0"
     style="fill:#737373;fill-opacity:1" />
</svg>
