<?xml version="1.0" encoding="utf-8"?>
<!-- Generator: Adobe Illustrator 21.0.2, SVG Export Plug-In . SVG Version: 6.00 Build 0)  -->
<svg version="1.1" id="Isolation_Mode" xmlns="http://www.w3.org/2000/svg" xmlns:xlink="http://www.w3.org/1999/xlink" x="0px"
	 y="0px" viewBox="0 0 45.8 64.2" xml:space="preserve" fill="currentColor">
<g>
	<path class="st0" d="M2,63h41.6c0.7,0,1.2-0.6,1.2-1.2V16.7c0-0.7-0.6-1.2-1.2-1.2h-9.2v-3c0-6.4-5.2-11.5-11.5-11.5
		S11.2,6.1,11.2,12.5v3H2c-0.7,0-1.2,0.6-1.2,1.2v45.1C0.8,62.4,1.3,63,2,63z M13.8,12.5c0-5,4-9,9-9s9,4,9,9v3h-18V12.5z M3.2,18h8
		v4.8c0,0.7,0.6,1.2,1.2,1.2s1.2-0.6,1.2-1.2V18h18v4.8c0,0.7,0.6,1.2,1.2,1.2s1.2-0.6,1.2-1.2V18h8v42.5h-39V18z"/>
</g>
</svg>
